<svg height="472pt" viewBox="-52 0 472 472" width="472pt" xmlns="http://www.w3.org/2000/svg"><path d="m368 288c0 101.621094-82.378906 184-184 184s-184-82.378906-184-184 82.378906-184 184-184 184 82.378906 184 184zm0 0" fill="#f98500"/><path d="m313.488281 157.304688c-32 183.0625-152.640625 254.222656-234.617187 281.671874 78.347656 54.378907 185.261718 39.882813 246.296875-33.394531 61.039062-73.28125 55.96875-181.054687-11.679688-248.277343zm0 0" fill="#f27900"/><g fill="#e66000"><path d="m280 200h16v16h-16zm0 0"/><path d="m312 248h16v16h-16zm0 0"/><path d="m232 360h16v16h-16zm0 0"/><path d="m280 368h16v16h-16zm0 0"/><path d="m208 408h16v16h-16zm0 0"/></g><path d="m81.601562 187.527344-11.386718-11.246094c4.078125-4.121094 8.367187-8.019531 12.855468-11.679688l10.105469 12.40625c-4.042969 3.296876-7.90625 6.808594-11.574219 10.519532zm0 0" fill="#ff9419"/><path d="m40.855469 272.871094-15.902344-1.742188c3.328125-30.269531 15.265625-58.945312 34.398437-82.632812l12.464844 10.023437c-17.214844 21.316407-27.960937 47.117188-30.960937 74.351563zm0 0" fill="#ff9419"/><path d="m208.40625 46.65625c-10.253906-6.828125-16.414062-18.335938-16.40625-30.65625h-16c-.019531 17.679688 8.8125 34.199219 23.527344 44l4 2.6875 8.878906-13.3125zm0 0" fill="#5f943a"/><path d="m176 0h16v144h-16zm0 0" fill="#5f943a"/><path d="m199.996094 50.964844c69.066406-15.0625 137.269531 28.714844 152.335937 97.785156-69.070312 15.0625-137.273437-28.714844-152.335937-97.785156zm0 0" fill="#5f943a"/><path d="m329.519531 99.199219c-33.542969 11.199219-76.191406 6.082031-108.105469-.4375 29.828126 41.199219 81.222657 60.832031 130.921876 50.007812-3.929688-17.980469-11.714844-34.890625-22.816407-49.570312zm0 0" fill="#568741"/><path d="m184 151.289062c-10.125-.003906-20.023438-3.007812-28.441406-8.632812l8.882812-13.3125c11.839844 7.914062 27.277344 7.914062 39.117188 0l8.882812 13.3125c-8.417968 5.625-18.316406 8.628906-28.441406 8.632812zm0 0" fill="#e66000"/></svg>