<svg id="Capa_1" enable-background="new 0 0 512 512" height="512" viewBox="0 0 512 512" width="512" xmlns="http://www.w3.org/2000/svg"><path d="m342.847 60.494c-.044 0-.086 0-.13-.001-4.203-.07-7.554-3.527-7.499-7.726.001-.421-.082-21.723-15.935-40.169-2.745-3.195-2.38-8.01.814-10.755 3.196-2.746 8.011-2.379 10.755.814 19.837 23.085 19.635 49.236 19.617 50.338-.069 4.167-3.469 7.499-7.622 7.499z" fill="#994e37"/><path d="m505.47 340.997c-15.228-70.313-43.162-77.815-56.275-171.686-9.846-70.49-49.483-116.443-106.351-116.443-37.785 0-67.957 20.292-86.844 54.582 9.539 17.319 16.203 38.205 19.507 61.86 13.112 93.872 41.047 101.374 56.275 171.686 9.911 45.762-5.549 119.839-75.782 153.432 22.828 10.92 51.429 17.572 86.844 17.572 144.373 0 175.759-110.367 162.626-171.003z" fill="#348021"/><path d="m342.844 493.696c-26.306 0-48.846-3.676-68.059-10.039-5.773 3.924-12.023 7.537-18.785 10.772 22.828 10.919 51.429 17.571 86.844 17.571 131.34 0 169.164-91.335 165.037-153.479-3.863 60.292-46.113 135.175-165.037 135.175z" fill="#2e701b"/><path d="m169.156 512c144.373 0 175.758-110.367 162.626-171.003-15.228-70.313-43.162-77.815-56.275-171.686-9.846-70.49-49.483-116.443-106.352-116.443s-96.505 45.953-106.352 116.443c-13.111 93.871-41.045 101.373-56.273 171.686-13.133 60.636 18.253 171.003 162.626 171.003z" fill="#98db7c"/><path d="m169.156 493.696c-118.924 0-161.174-74.883-165.037-135.175-4.128 62.144 33.697 153.479 165.037 153.479s169.165-91.335 165.037-153.479c-3.863 60.292-46.113 135.175-165.037 135.175z" fill="#82d361"/><path d="m169.156 481.697c125.316 0 143.406-95.798 132.007-148.43-13.218-61.031-37.465-67.543-48.846-149.023-8.547-61.185-33.799-101.072-83.161-101.072s-74.614 39.887-83.161 101.072c-11.382 81.48-35.628 87.992-48.846 149.023-11.399 52.631 6.691 148.43 132.007 148.43z" fill="#ffeca1"/><path d="m169.156 463.393c-99.331 0-131.287-60.187-134.595-111.36-3.528 53.797 23.074 129.664 134.595 129.664 111.52 0 138.122-75.866 134.594-129.664-3.307 51.172-35.263 111.36-134.594 111.36z" fill="#ffdf85"/><path d="m168.866 436.817c34.511 0 68.531-20.484 62.488-70.453-5.501-45.49-36.92-82.603-62.488-82.603-25.569 0-56.987 37.113-62.488 82.603-6.044 49.969 27.976 70.453 62.488 70.453z" fill="#994e37"/><path d="m168.866 418.513c-29.456 0-58.548-14.927-62.684-50.368-5.027 48.673 28.586 68.672 62.684 68.672 34.097 0 67.71-19.999 62.683-68.672-4.136 35.441-33.228 50.368-62.683 50.368z" fill="#844131"/></svg>