<svg id="Capa_1" enable-background="new 0 0 512 512" height="512" viewBox="0 0 512 512" width="512" xmlns="http://www.w3.org/2000/svg"><g><g><path d="m156.508 92.428c25.506 6.834 51.608-7.873 58.301-32.849s-8.559-50.764-34.065-57.598-87.746 4.741-92.8 23.605 43.058 60.008 68.564 66.842z" fill="#c8ea73"/></g><g><path d="m180.743 1.981c-2.289-.613-4.875-1.078-7.688-1.403 10.485 11.456 15.104 27.666 10.848 43.549-6.472 24.155-31.098 38.704-55.782 33.453 10.127 7.166 20.373 12.701 28.387 14.848 25.506 6.835 51.608-7.873 58.301-32.849 6.692-24.976-8.56-50.764-34.066-57.598z" fill="#b7e445"/></g><path d="m244.168 59.448-68.051-18.235-13.615-23.582c-2.134-3.696-6.859-4.961-10.554-2.828-3.696 2.134-4.962 6.859-2.828 10.554l5.889 10.2-28.746-7.703c-4.118-1.104-8.359 1.34-9.463 5.463-1.104 4.122 1.342 8.358 5.463 9.463l48.597 13.022-11.299 6.524c-3.696 2.134-4.962 6.859-2.828 10.554 1.431 2.479 4.028 3.864 6.698 3.864 1.311 0 2.64-.334 3.856-1.036l24.681-14.25 48.202 12.916c.67.18 1.343.266 2.005.266 3.411 0 6.533-2.277 7.458-5.728 1.103-4.123-1.343-8.36-5.465-9.464z" fill="#d8f1a0"/><path d="m244.168 59.448-60.065-16.095c-.064.258-.131.516-.2.773-3.747 13.984-13.578 24.748-25.983 30.315 1.468 1.49 3.467 2.302 5.509 2.302 1.311 0 2.64-.334 3.856-1.036l24.681-14.25 48.202 12.916c.67.18 1.343.266 2.005.266 3.411 0 6.533-2.277 7.458-5.728 1.105-4.122-1.341-8.359-5.463-9.463z" fill="#c8ea73"/><g><path d="m417.467 0h-93.726c11.47 0 5.234 13.9 13.038 21.155 4.739 4.406 25.188.392 27.608 6.507h53.08c7.638 0 13.831-6.193 13.831-13.831s-6.193-13.831-13.831-13.831z" fill="#d8f1a0"/></g><g><path d="m323.741 0h-25.424c-30.96 0-56.148 25.188-56.148 56.148v64.559c4.425-1.12 9.059 14.762 13.832 14.762s9.406-15.882 13.831-14.762v-64.559c0-9.33 4.509-17.627 11.462-22.826-.812 3.325-1.243 6.798-1.243 10.369 0 24.091 19.6 43.691 43.691 43.691s43.691-19.6 43.691-43.691-19.601-43.691-43.692-43.691zm0 59.72c-8.838 0-16.029-7.191-16.029-16.029s7.191-16.029 16.029-16.029 16.029 7.191 16.029 16.029-7.192 16.029-16.029 16.029z" fill="#e2f4b4"/></g><g fill="#d8f1a0"><path d="m326.145 27.662h-2.404c2.644 0 5.14.644 7.341 1.782-1.34-1.113-3.06-1.782-4.937-1.782z"/><path d="m281.293 33.322c-.026.016-.052.036-.078.059.026-.019.052-.039.078-.059z"/><path d="m307.722 43.115c.305-8.572 7.374-15.453 16.019-15.453h-23.02c-6.959 0-13.622 1.949-19.428 5.66-.812 3.325-1.243 6.798-1.243 10.369 0 4.007.543 7.89 1.558 11.579 4.086-7.831 11.268-12.155 19.113-12.155z"/></g><path d="m135.638 148.558-30.749 42.167v109.233l40.945 70.154 53.97 71.734 62.53 38.257 48.019-38.35 55.813-71.641 40.945-70.154v-109.233l-102.541-43.711h-97.14z" fill="#734d9d"/><g><path d="m143.609 245.342c0-14.872 5.819-28.355 15.251-38.407-10.252-10.925-24.78-17.789-40.945-17.789-31.036 0-56.196 25.16-56.196 56.196s25.16 56.196 56.196 56.196c16.164 0 30.693-6.864 40.945-17.789-9.432-10.052-15.251-23.536-15.251-38.407z" fill="#a586c6"/></g><g><path d="m394.085 189.146c-16.164 0-30.693 6.864-40.945 17.789 9.432 10.052 15.251 23.535 15.251 38.407s-5.819 28.355-15.251 38.407c10.252 10.925 24.781 17.789 40.945 17.789 31.036 0 56.196-25.16 56.196-56.196s-25.16-56.196-56.196-56.196z" fill="#a586c6"/></g><g><path d="m257.843 259.393c-.617-.02-1.221-.093-1.843-.093s-1.226.073-1.843.093c-6.1 23.647-27.158 41.227-52.51 42.051-1.161 4.499-1.843 9.19-1.843 14.052 0 31.036 25.16 56.196 56.196 56.196s56.196-25.16 56.196-56.196c0-4.861-.682-9.553-1.843-14.052-25.352-.824-46.411-18.404-52.51-42.051z" fill="#845caf"/></g><g><path d="m201.621 301.445c-.609.02-1.204.092-1.817.092-16.164 0-30.693-6.864-40.945-17.789-10.252 10.925-24.78 17.789-40.945 17.789-4.492 0-8.839-.583-13.026-1.579-1.42 4.94-2.225 10.141-2.225 15.538 0 31.036 25.16 56.196 56.196 56.196 20.756 0 38.838-11.284 48.57-28.022-4.82-8.29-7.625-17.894-7.625-28.174 0-4.859.647-9.561 1.817-14.051z" fill="#845caf"/></g><g><path d="m394.085 301.537c-16.164 0-30.693-6.864-40.945-17.789-10.252 10.925-24.78 17.789-40.945 17.789-.613 0-1.208-.072-1.817-.092 1.17 4.49 1.817 9.191 1.817 14.051 0 10.28-2.806 19.884-7.625 28.174 9.732 16.738 27.814 28.022 48.57 28.022 31.036 0 56.196-25.16 56.196-56.196 0-5.397-.805-10.598-2.225-15.538-4.187.996-8.534 1.579-13.026 1.579z" fill="#845caf"/></g><g><path d="m257.843 231.29c-.617.02-1.221.093-1.843.093s-1.226-.073-1.843-.093c-6.1-23.647-27.158-41.227-52.51-42.051-1.161-4.499-1.843-9.19-1.843-14.052 0-31.036 25.16-56.196 56.196-56.196s56.196 25.16 56.196 56.196c0 4.861-.682 9.553-1.843 14.052-25.352.824-46.411 18.404-52.51 42.051z" fill="#845caf"/></g><g><path d="m201.621 189.238c-.609-.02-1.204-.092-1.817-.092-16.164 0-30.693 6.864-40.945 17.789-10.252-10.925-24.78-17.789-40.945-17.789-4.492 0-8.839.583-13.026 1.579-1.42-4.94-2.225-10.141-2.225-15.538 0-31.036 25.16-56.196 56.196-56.196 20.756 0 38.838 11.284 48.57 28.022-4.82 8.29-7.625 17.894-7.625 28.174 0 4.86.647 9.561 1.817 14.051z" fill="#845caf"/></g><g><path d="m394.085 189.146c-16.164 0-30.693 6.864-40.945 17.789-10.252-10.925-24.78-17.789-40.945-17.789-.613 0-1.208.072-1.817.092 1.17-4.49 1.817-9.191 1.817-14.051 0-10.28-2.806-19.884-7.625-28.174 9.732-16.738 27.814-28.022 48.57-28.022 31.036 0 56.196 25.16 56.196 56.196 0 5.397-.805 10.598-2.225 15.538-4.187-.996-8.534-1.579-13.026-1.579z" fill="#845caf"/></g><g><path d="m207.43 343.67c-9.732 16.738-27.814 28.022-48.57 28.022-4.492 0-8.839-.583-13.026-1.579-1.42 4.94-2.225 10.141-2.225 15.538 0 31.036 25.16 56.196 56.196 56.196s56.195-25.161 56.195-56.197c0-4.861-.682-9.553-1.843-14.052-19.976-.649-37.287-11.692-46.727-27.928z" fill="#a586c6"/></g><g><path d="m353.14 371.691c-20.756 0-38.838-11.284-48.57-28.022-9.44 16.237-26.751 27.279-46.727 27.929-1.161 4.499-1.843 9.19-1.843 14.052 0 31.036 25.16 56.196 56.196 56.196s56.196-25.16 56.196-56.196c0-5.397-.805-10.598-2.225-15.538-4.188.996-8.535 1.579-13.027 1.579z" fill="#a586c6"/></g><g><path d="m257.843 399.702c-.617-.02-1.221-.093-1.843-.093s-1.226.073-1.843.093c-6.1 23.647-27.158 41.227-52.51 42.051-1.161 4.499-1.843 9.19-1.843 14.052 0 31.035 25.16 56.195 56.196 56.195s56.196-25.16 56.196-56.196c0-4.861-.682-9.553-1.843-14.052-25.352-.824-46.411-18.403-52.51-42.05z" fill="#845caf"/></g><g><path d="m158.86 206.935c-10.252-10.925-24.78-17.789-40.945-17.789-.936 0-1.866.023-2.791.068-7.932 9.681-12.722 22.031-12.722 35.524 0 7.183 1.358 14.043 3.824 20.348 5.892 15.063-3.315 31.936-19.215 34.9-3.338.622-6.781.948-10.302.948-.777 0-1.551-.016-2.321-.047 10.305 12.605 25.977 20.651 43.528 20.651 16.164 0 30.693-6.864 40.945-17.789-9.432-10.052-15.251-23.535-15.251-38.407s5.818-28.356 15.25-38.407z" fill="#9373b9"/></g><g><path d="m396.406 189.193c7.918 9.685 12.667 22.06 12.667 35.545 0 30.1-23.665 54.673-53.405 56.127-.811.989-1.654 1.951-2.529 2.883 10.252 10.925 24.781 17.789 40.945 17.789 31.036 0 56.196-25.16 56.196-56.196.001-30.258-23.914-54.931-53.874-56.148z" fill="#9373b9"/></g><g><path d="m310.353 301.444c-16.453-.535-31.098-8.127-41.019-19.855 1.046 4.27 1.655 8.711 1.655 13.303 0 31.036-25.16 56.195-56.196 56.195-.777 0-1.551-.016-2.321-.047 10.305 12.605 25.977 20.651 43.528 20.651 31.036 0 56.196-25.16 56.196-56.195 0-4.861-.682-9.553-1.843-14.052z" fill="#734d9d"/></g><g><path d="m199.804 315.496c0-4.859.647-9.561 1.817-14.051-.609.02-1.204.092-1.817.092-15.786 0-30.012-6.547-40.218-17.029-.643 3.363-.989 6.831-.989 10.384 0 5.14.701 10.111 2.005 14.833 3.394 12.293-1.788 25.42-12.486 32.362-8.77 5.691-19.225 9-30.464 9-.777 0-1.551-.016-2.321-.047 10.305 12.605 25.977 20.651 43.528 20.651 20.756 0 38.838-11.284 48.57-28.022-4.819-8.289-7.625-17.893-7.625-28.173z" fill="#734d9d"/></g><g><path d="m407.111 299.958c-4.187.995-8.534 1.579-13.026 1.579-9.374 0-18.198-2.309-25.957-6.379-.143 30.913-25.248 55.93-56.195 55.93-.755 0-1.505-.015-2.253-.045 10.295 12.594 25.923 20.648 43.46 20.648 31.036 0 56.196-25.16 56.196-56.195 0-5.397-.805-10.598-2.225-15.538z" fill="#734d9d"/></g><g><path d="m201.459 188.49c.061.25.124.5.188.749.15.005.299.011.448.017-.21-.257-.422-.513-.636-.766z" fill="#734d9d"/></g><g><path d="m258.321 119.039c7.918 9.685 12.668 22.06 12.668 35.545v.146c-.02 7.303-5.193 13.638-12.32 15.233-14.662 3.281-27.144 12.288-34.991 24.56 14.945 7.029 26.272 20.454 30.48 36.768.617.02 1.221.093 1.843.093s1.226-.073 1.843-.093c6.1-23.647 27.158-41.227 52.51-42.051 1.161-4.499 1.843-9.19 1.843-14.052-.001-30.259-23.916-54.932-53.876-56.149z" fill="#734d9d"/></g><g><path d="m207.43 147.014c-9.378-16.13-26.51-27.194-46.318-27.977.049.06.099.121.148.181 3.111 3.837 3.66 9.096 1.738 13.646-2.822 6.68-4.401 14.01-4.401 21.72 0 4.237.492 8.354 1.393 12.315.196.862-.491 1.645-1.375 1.643-.006 0-.012 0-.018 0-9.429 0-18.302 2.336-26.093 6.451-9.308 4.916-20.333 4.964-29.635.036-.068-.036-.136-.072-.204-.107-.027 5.492.781 10.783 2.224 15.803 4.187-.996 8.534-1.579 13.026-1.579 16.164 0 30.693 6.864 40.945 17.789 10.252-10.925 24.78-17.789 40.945-17.789.613 0 1.208.072 1.817.092-1.17-4.49-1.817-9.191-1.817-14.051-.001-10.279 2.805-19.884 7.625-28.173z" fill="#734d9d"/></g><g><path d="m355.461 119.039c7.918 9.685 12.668 22.06 12.668 35.545 0 .777-.017 1.55-.05 2.319-.292 6.834-6.219 11.964-13.053 11.684-.712-.029-1.428-.044-2.148-.044-17.54 0-33.154 8.082-43.467 20.665.961.106 1.852-.061 2.785-.061 16.164 0 30.693 6.864 40.945 17.789 10.252-10.925 24.781-17.789 40.945-17.789 4.492 0 8.839.583 13.026 1.579 1.42-4.94 2.225-10.141 2.225-15.538-.001-30.259-23.916-54.932-53.876-56.149z" fill="#734d9d"/></g><g><path d="m254.157 371.598c-16.447-.534-31.087-8.115-41.015-19.838 1.043 4.265 1.65 8.7 1.65 13.286 0 31.036-25.16 56.195-56.196 56.195-.777 0-1.551-.016-2.321-.047 10.305 12.605 25.977 20.651 43.528 20.651 31.036 0 56.196-25.159 56.196-56.195.001-4.861-.681-9.553-1.842-14.052z" fill="#9373b9"/></g><g><path d="m366.246 370.112c-4.187.996-8.534 1.579-13.026 1.579-9.372 0-18.198-2.301-25.957-6.365-.151 30.907-25.252 55.915-56.195 55.915-.777 0-1.551-.016-2.321-.047 10.305 12.605 25.977 20.651 43.528 20.651 31.036 0 56.195-25.159 56.195-56.195 0-5.396-.804-10.598-2.224-15.538z" fill="#9373b9"/></g><g><path d="m310.353 441.753c-16.453-.535-31.098-8.127-41.019-19.855 1.046 4.27 1.655 8.711 1.655 13.303 0 31.036-25.16 56.196-56.196 56.196-.777 0-1.551-.016-2.321-.047 10.305 12.604 25.977 20.65 43.528 20.65 31.036 0 56.196-25.16 56.196-56.196 0-4.861-.682-9.553-1.843-14.051z" fill="#734d9d"/></g><g><circle cx="312.196" cy="245.342" fill="#a586c6" r="56.196"/></g><g><path d="m314.516 189.193c7.918 9.685 12.668 22.06 12.668 35.545 0 31.036-25.16 56.196-56.196 56.196-.777 0-1.551-.016-2.321-.047 10.305 12.605 25.977 20.651 43.528 20.651 31.036 0 56.196-25.16 56.196-56.196 0-30.259-23.915-54.932-53.875-56.149z" fill="#9373b9"/></g><g><circle cx="199.804" cy="245.342" fill="#a586c6" r="56.196"/></g><g><path d="m202.125 189.193c7.918 9.685 12.668 22.06 12.668 35.545 0 31.036-25.16 56.196-56.196 56.196-.777 0-1.551-.016-2.321-.047 10.305 12.605 25.977 20.651 43.528 20.651 31.036 0 56.196-25.16 56.196-56.196 0-30.259-23.915-54.932-53.875-56.149z" fill="#9373b9"/></g></g></svg>