<svg id="Layer_1" enable-background="new 0 0 512 512" height="512" viewBox="0 0 512 512" width="512" xmlns="http://www.w3.org/2000/svg"><g><path d="m274.751 45.65c26.53-26.503 67.179-44.072 81.403-29.863s-3.364 54.816-29.894 81.319-51.957 28.866-66.181 14.657-11.858-39.61 14.672-66.113z" fill="#45d987"/><path d="m356.154 15.787c-6.595-6.588-18.873-6.336-32.787-1.538.652.469 1.28.969 1.85 1.538 14.224 14.209-3.364 54.816-29.894 81.319-9.748 9.738-19.345 16.206-28.295 19.801 14.757 7.843 36.589 2.818 59.232-19.801 26.531-26.503 44.118-67.11 29.894-81.319z" fill="#1eb073"/><path d="m321.395 50.51c-2.928-2.93-7.676-2.933-10.607-.005l-90.733 90.639c-2.93 2.928-2.933 7.676-.005 10.607 1.465 1.466 3.385 2.199 5.306 2.199 1.918 0 3.836-.731 5.301-2.194l90.733-90.639c2.93-2.928 2.932-7.676.005-10.607z" fill="#199461"/><path d="m186.636 100.866c-30.981-30.949-51.519-78.368-34.909-94.961s64.078 3.924 95.059 34.873 33.744 60.611 17.134 77.204-46.302 13.834-77.284-17.116z" fill="#45d987"/><path d="m246.786 40.779c-28.83-28.8-71.923-48.549-91.155-37.784 19.592 5.932 42.575 20.16 60.218 37.784 30.981 30.949 33.744 60.611 17.134 77.204-3.042 3.039-6.527 5.422-10.375 7.108 16.767 5.808 31.38 2.814 41.312-7.108 16.61-16.593 13.848-46.255-17.134-77.204z" fill="#1eb073"/><path d="m309.77 153.183-105.955-105.845c-2.93-2.927-7.679-2.925-10.607.005-2.927 2.931-2.925 7.679.005 10.607l105.955 105.845c1.464 1.463 3.382 2.194 5.301 2.194 1.92 0 3.841-.733 5.306-2.199 2.927-2.931 2.925-7.68-.005-10.607z" fill="#199461"/><path d="m421 238.662v86.824c0 63.838-39.42 118.475-95.275 140.966-12.833 5.167-23.64 14.138-31.505 25.507-8.377 12.107-22.373 20.041-38.22 20.041s-29.843-7.934-38.22-20.042c-7.865-11.368-18.672-20.339-31.505-25.507-55.855-22.49-95.275-77.127-95.275-140.965v-86.824c0-83.908 68.119-151.941 152.156-151.941h25.688c84.037 0 152.156 68.033 152.156 151.941z" fill="#ffc808"/><path d="m308.837 92.036c48.11 25.524 80.876 76.07 80.876 134.259v86.824c0 63.838-39.42 118.475-95.275 140.966-12.833 5.167-23.64 14.138-31.505 25.507-8.376 12.107-22.373 20.042-38.22 20.042-.087 0-.173-.008-.26-.008 8.283 7.671 19.362 12.374 31.547 12.374 15.847 0 29.843-7.934 38.22-20.042 7.865-11.368 18.672-20.339 31.505-25.507 55.855-22.49 95.275-77.127 95.275-140.965v-86.824c0-70.087-47.531-129.088-112.163-146.626z" fill="#ffae08"/><g fill="#f78e36"><path d="m188.764 412.838c-2.356-3.407-7.028-4.259-10.435-1.901-3.407 2.356-4.258 7.028-1.901 10.435l5.043 7.291c1.456 2.105 3.795 3.234 6.175 3.234 1.471 0 2.958-.432 4.26-1.333 3.407-2.356 4.258-7.028 1.901-10.435z"/><path d="m219.007 382.866c-1.21-3.96-5.405-6.189-9.365-4.98-3.961 1.21-6.191 5.403-4.98 9.365l2.81 9.192c.987 3.23 3.958 5.31 7.17 5.31.726 0 1.464-.106 2.195-.33 3.961-1.21 6.191-5.403 4.98-9.365z"/><path d="m333.671 410.937c-3.406-2.357-8.079-1.505-10.435 1.901l-5.043 7.291c-2.356 3.407-1.505 8.079 1.901 10.435 1.302.901 2.788 1.333 4.26 1.333 2.379 0 4.719-1.129 6.175-3.234l5.043-7.291c2.357-3.408 1.506-8.08-1.901-10.435z"/><path d="m302.358 377.886c-3.966-1.212-8.154 1.02-9.365 4.98l-2.81 9.192c-1.211 3.961 1.019 8.154 4.98 9.365.731.224 1.469.33 2.195.33 3.211 0 6.183-2.079 7.17-5.31l2.81-9.192c1.211-3.962-1.019-8.155-4.98-9.365z"/><path d="m256 389.635c-4.142 0-7.5 3.358-7.5 7.5v9.494c0 4.142 3.358 7.5 7.5 7.5s7.5-3.358 7.5-7.5v-9.494c0-4.142-3.358-7.5-7.5-7.5z"/></g></g></svg>