<svg id="Capa_1" enable-background="new 0 0 512 512" height="512" viewBox="0 0 512 512" width="512" xmlns="http://www.w3.org/2000/svg"><path d="m347.705 159.133c-13.685-25.813-29.914-47.798-47.967-64.145h.011c-38.894-37.338-27.292-94.988-72.564-94.988s-33.67 57.65-72.564 94.988h.011c-18.053 16.347-34.282 38.332-47.967 64.145-45.646-25.363-90.885-13.728-63.336 7.373 35.495 27.188 37.026 56.784 37.026 56.784l.007-.003c-4.468 14.473-8.242 29.498-11.248 44.889-5.188-2.04-10.757-3.741-16.659-4.851-38.963-7.326-71.377 9.538-38.963 29.021 35.598 21.398 47.314 61.008 47.314 61.008 0 87.617 74.49 158.645 166.379 158.645s166.379-71.028 166.379-158.645c0-44.907-7.079-89.648-19.556-130.068l.007.003s1.531-29.596 37.027-56.784c27.547-21.099-17.692-32.735-63.337-7.372z" fill="#ff4755"/><path d="m228.424 484.129c-73.098 0-135.907-39.163-163.414-95.194 16.939 70.485 83.116 123.065 162.175 123.065 75.448 0 139.154-47.89 159.54-113.525-29.683 50.887-89.426 85.654-158.301 85.654z" fill="#fc2b3a"/><path d="m454.734 189.099-265.861 265.861c-2.053 2.053-2.018 5.406.094 7.399 73.212 69.105 190.652 65.817 264.818-8.349 74.165-74.166 77.454-191.606 8.349-264.818-1.994-2.111-5.347-2.146-7.4-.093z" fill="#ff7b8b"/><path d="m453.785 435.43c-72.229 72.229-185.494 77.224-258.986 13.605l-5.925 5.925c-2.053 2.053-2.018 5.406.093 7.399 73.212 69.105 190.652 65.817 264.818-8.349 40.999-40.999 60.329-95.222 57.753-147.888-2.264 46.629-21.566 93.12-57.753 129.308z" fill="#ff647e"/><path d="m441.105 202.728-238.603 238.603c56.842 56.842 156.335 49.509 222.223-16.38s73.222-165.381 16.38-222.223z" fill="#f4e9d3"/><path d="m424.725 406.371c-62.258 62.258-154.511 72.224-212.444 25.181l-9.779 9.78c56.842 56.842 156.335 49.509 222.223-16.38 38.675-38.675 57.165-88.927 54.353-135.337-2.435 40.919-20.793 83.196-54.353 116.756z" fill="#e5d6be"/><path d="m266.116 377.664s-10.82-83.576-38.931-83.576c-28.11 0-38.931 83.576-38.931 83.576" fill="#98db7c"/><path d="m60.807 353.355s-11.716-39.611-47.314-61.008c-32.414-19.483 0-36.347 38.963-29.021 34.027 6.398 57.258 32.159 57.258 32.159" fill="#98db7c"/><path d="m80.356 223.291s-1.531-29.596-37.026-56.784 49.844-38.678 101.199 24.464" fill="#98db7c"/><path d="m374.014 223.291s1.531-29.596 37.027-56.784c35.495-27.188-49.844-38.678-101.199 24.464" fill="#98db7c"/><path d="m261.174 230.173s-9.446-73.186-33.988-73.186-33.988 73.186-33.988 73.186" fill="#98db7c"/><g fill="#5b5b5b"><path d="m274.316 422.129c0 7.42-6.021 13.434-13.448 13.434s-13.448-6.015-13.448-13.434c0-7.42 6.021-13.434 13.448-13.434s13.448 6.014 13.448 13.434z"/><ellipse cx="308.979" cy="446.355" rx="13.448" ry="13.434"/><ellipse cx="318.494" cy="401.383" rx="13.448" ry="13.434"/><ellipse cx="368.022" cy="418.697" rx="13.448" ry="13.434"/><ellipse cx="376.342" cy="371.048" rx="13.448" ry="13.434"/><ellipse cx="418.686" cy="368.085" rx="13.448" ry="13.434"/><ellipse cx="344.169" cy="338.908" rx="13.448" ry="13.434"/><ellipse cx="401.357" cy="318.604" rx="13.448" ry="13.434"/><ellipse cx="446.375" cy="309.101" rx="13.448" ry="13.434"/><ellipse cx="422.12" cy="261.04" rx="13.448" ry="13.434"/></g></svg>